<?xml version="1.0" encoding="UTF-8" standalone="no"?>
<svg version="1.1" baseProfile="full" xmlns="http://www.w3.org/2000/svg" xmlns:xlink="http://www.w3.org/1999/xlink" xmlns:ev="http://www.w3.org/2001/xml-events" width="311" height="311"><style type="text/css">#cells rect { fill: #fff; stroke: #000; stroke-width: 0.2; }#cells g.error-1 rect, #cells g.error-2 rect { fill: #f45252; }#cells text { fill: #666; cursor: default; text-anchor: middle; }#cells text.user { fill: #000; }#cells text.solver { fill: #e00; }#cells text.gnc { fill: #080; }#selector { opacity: 0.7; }#selector:hover { opacity: 0.9; }#selector rect { fill: #fff; stroke: #000; stroke-width: 0.2; stroke-linecap: round; }#selector g:hover rect { fill: #f3f3f3; }#selector text { fill: #000; font-size: 12px; text-anchor: middle; cursor: default; }#selector g.disabled rect { fill: #fff; }#selector g.disabled text { fill: #ccc; }#grid_id { opacity: 0.9; fill: #000; stroke: #fff; stroke-width: 2; text-anchor: middle; cursor: default; }#grid_id text.active { fill: #e00; }#grid_id text:hover { stroke: #66e; }</style><defs><g id="diag1" fill="#ccc"><circle cx="6" cy="6" r="3"></circle><circle cx="15" cy="15" r="3"></circle><circle cx="24" cy="24" r="3"></circle></g><g id="diag2" fill="#ccc"><circle cx="24" cy="6" r="3"></circle><circle cx="15" cy="15" r="3"></circle><circle cx="6" cy="24" r="3"></circle></g></defs><g fill="#888" font-size="9.9px" cursor="default" text-anchor="middle"><text x="50.5" y="28.5">1</text><text x="80.5" y="28.5">2</text><text x="110.5" y="28.5">3</text><text x="140.5" y="28.5">4</text><text x="170.5" y="28.5">5</text><text x="200.5" y="28.5">6</text><text x="230.5" y="28.5">7</text><text x="260.5" y="28.5">8</text><text x="290.5" y="28.5">9</text><text x="25.5" y="55.5">A</text><text x="25.5" y="85.5">B</text><text x="25.5" y="115.5">C</text><text x="25.5" y="145.5">D</text><text x="25.5" y="175.5">E</text><text x="25.5" y="205.5">F</text><text x="25.5" y="235.5">G</text><text x="25.5" y="265.5">H</text><text x="25.5" y="295.5">I</text></g><g id="cells" font-size="21px"><g><rect x="35.5" y="35.5" width="30" height="30"></rect><use transform="translate(35.5, 35.5)" href="#diag1"></use></g><g><rect x="65.5" y="35.5" width="30" height="30"></rect></g><g><rect x="95.5" y="35.5" width="30" height="30"></rect></g><g><rect x="125.5" y="35.5" width="30" height="30"></rect></g><g><rect x="155.5" y="35.5" width="30" height="30"></rect></g><g><rect x="185.5" y="35.5" width="30" height="30"></rect></g><g><rect x="215.5" y="35.5" width="30" height="30"></rect></g><g><rect x="245.5" y="35.5" width="30" height="30"></rect></g><g><rect x="275.5" y="35.5" width="30" height="30"></rect><use transform="translate(275.5, 35.5)" href="#diag2"></use></g><g><rect x="35.5" y="65.5" width="30" height="30"></rect></g><g><rect x="65.5" y="65.5" width="30" height="30"></rect><use transform="translate(65.5, 65.5)" href="#diag1"></use></g><g><rect x="95.5" y="65.5" width="30" height="30"></rect></g><g><rect x="125.5" y="65.5" width="30" height="30"></rect></g><g><rect x="155.5" y="65.5" width="30" height="30"></rect></g><g><rect x="185.5" y="65.5" width="30" height="30"></rect></g><g><rect x="215.5" y="65.5" width="30" height="30"></rect></g><g><rect x="245.5" y="65.5" width="30" height="30"></rect><use transform="translate(245.5, 65.5)" href="#diag2"></use></g><g><rect x="275.5" y="65.5" width="30" height="30"></rect></g><g><rect x="35.5" y="95.5" width="30" height="30"></rect></g><g><rect x="65.5" y="95.5" width="30" height="30"></rect></g><g><rect x="95.5" y="95.5" width="30" height="30"></rect><use transform="translate(95.5, 95.5)" href="#diag1"></use></g><g><rect x="125.5" y="95.5" width="30" height="30"></rect></g><g><rect x="155.5" y="95.5" width="30" height="30"></rect></g><g><rect x="185.5" y="95.5" width="30" height="30"></rect></g><g><rect x="215.5" y="95.5" width="30" height="30"></rect><use transform="translate(215.5, 95.5)" href="#diag2"></use></g><g><rect x="245.5" y="95.5" width="30" height="30"></rect></g><g><rect x="275.5" y="95.5" width="30" height="30"></rect></g><g><rect x="35.5" y="125.5" width="30" height="30"></rect></g><g><rect x="65.5" y="125.5" width="30" height="30"></rect></g><g><rect x="95.5" y="125.5" width="30" height="30"></rect></g><g><rect x="125.5" y="125.5" width="30" height="30"></rect><use transform="translate(125.5, 125.5)" href="#diag1"></use></g><g><rect x="155.5" y="125.5" width="30" height="30"></rect></g><g><rect x="185.5" y="125.5" width="30" height="30"></rect><use transform="translate(185.5, 125.5)" href="#diag2"></use></g><g><rect x="215.5" y="125.5" width="30" height="30"></rect></g><g><rect x="245.5" y="125.5" width="30" height="30"></rect></g><g><rect x="275.5" y="125.5" width="30" height="30"></rect></g><g><rect x="35.5" y="155.5" width="30" height="30"></rect></g><g><rect x="65.5" y="155.5" width="30" height="30"></rect></g><g><rect x="95.5" y="155.5" width="30" height="30"></rect></g><g><rect x="125.5" y="155.5" width="30" height="30"></rect></g><g><rect x="155.5" y="155.5" width="30" height="30"></rect><use transform="translate(155.5, 155.5)" href="#diag1"></use><use transform="translate(155.5, 155.5)" href="#diag2"></use></g><g><rect x="185.5" y="155.5" width="30" height="30"></rect></g><g><rect x="215.5" y="155.5" width="30" height="30"></rect></g><g><rect x="245.5" y="155.5" width="30" height="30"></rect></g><g><rect x="275.5" y="155.5" width="30" height="30"></rect></g><g><rect x="35.5" y="185.5" width="30" height="30"></rect></g><g><rect x="65.5" y="185.5" width="30" height="30"></rect></g><g><rect x="95.5" y="185.5" width="30" height="30"></rect></g><g><rect x="125.5" y="185.5" width="30" height="30"></rect><use transform="translate(125.5, 185.5)" href="#diag2"></use></g><g><rect x="155.5" y="185.5" width="30" height="30"></rect></g><g><rect x="185.5" y="185.5" width="30" height="30"></rect><use transform="translate(185.5, 185.5)" href="#diag1"></use></g><g><rect x="215.5" y="185.5" width="30" height="30"></rect></g><g><rect x="245.5" y="185.5" width="30" height="30"></rect></g><g><rect x="275.5" y="185.5" width="30" height="30"></rect></g><g><rect x="35.5" y="215.5" width="30" height="30"></rect></g><g><rect x="65.5" y="215.5" width="30" height="30"></rect></g><g><rect x="95.5" y="215.5" width="30" height="30"></rect><use transform="translate(95.5, 215.5)" href="#diag2"></use></g><g><rect x="125.5" y="215.5" width="30" height="30"></rect></g><g><rect x="155.5" y="215.5" width="30" height="30"></rect></g><g><rect x="185.5" y="215.5" width="30" height="30"></rect></g><g><rect x="215.5" y="215.5" width="30" height="30"></rect><use transform="translate(215.5, 215.5)" href="#diag1"></use></g><g><rect x="245.5" y="215.5" width="30" height="30"></rect></g><g><rect x="275.5" y="215.5" width="30" height="30"></rect></g><g><rect x="35.5" y="245.5" width="30" height="30"></rect></g><g><rect x="65.5" y="245.5" width="30" height="30"></rect><use transform="translate(65.5, 245.5)" href="#diag2"></use></g><g><rect x="95.5" y="245.5" width="30" height="30"></rect></g><g><rect x="125.5" y="245.5" width="30" height="30"></rect></g><g><rect x="155.5" y="245.5" width="30" height="30"></rect></g><g><rect x="185.5" y="245.5" width="30" height="30"></rect></g><g><rect x="215.5" y="245.5" width="30" height="30"></rect></g><g><rect x="245.5" y="245.5" width="30" height="30"></rect><use transform="translate(245.5, 245.5)" href="#diag1"></use></g><g><rect x="275.5" y="245.5" width="30" height="30"></rect></g><g><rect x="35.5" y="275.5" width="30" height="30"></rect><use transform="translate(35.5, 275.5)" href="#diag2"></use></g><g><rect x="65.5" y="275.5" width="30" height="30"></rect></g><g><rect x="95.5" y="275.5" width="30" height="30"></rect></g><g><rect x="125.5" y="275.5" width="30" height="30"></rect></g><g><rect x="155.5" y="275.5" width="30" height="30"></rect></g><g><rect x="185.5" y="275.5" width="30" height="30"></rect></g><g><rect x="215.5" y="275.5" width="30" height="30"></rect></g><g><rect x="245.5" y="275.5" width="30" height="30"></rect></g><g><rect x="275.5" y="275.5" width="30" height="30"></rect><use transform="translate(275.5, 275.5)" href="#diag1"></use></g></g><g stroke="#888" stroke-width="2.5" stroke-linecap="round"><path d="M125.5,35.5L125.5,65.5"></path><path d="M215.5,35.5L215.5,65.5"></path><path d="M125.5,65.5L125.5,95.5"></path><path d="M215.5,65.5L215.5,95.5"></path><path d="M125.5,95.5L125.5,125.5"></path><path d="M215.5,95.5L215.5,125.5"></path><path d="M35.5,125.5L65.5,125.5"></path><path d="M65.5,125.5L95.5,125.5"></path><path d="M95.5,125.5L125.5,125.5"></path><path d="M125.5,125.5L125.5,155.5"></path><path d="M125.5,125.5L155.5,125.5"></path><path d="M155.5,125.5L185.5,125.5"></path><path d="M185.5,125.5L215.5,125.5"></path><path d="M215.5,125.5L215.5,155.5"></path><path d="M215.5,125.5L245.5,125.5"></path><path d="M245.5,125.5L275.5,125.5"></path><path d="M275.5,125.5L305.5,125.5"></path><path d="M125.5,155.5L125.5,185.5"></path><path d="M215.5,155.5L215.5,185.5"></path><path d="M125.5,185.5L125.5,215.5"></path><path d="M215.5,185.5L215.5,215.5"></path><path d="M35.5,215.5L65.5,215.5"></path><path d="M65.5,215.5L95.5,215.5"></path><path d="M95.5,215.5L125.5,215.5"></path><path d="M125.5,215.5L125.5,245.5"></path><path d="M125.5,215.5L155.5,215.5"></path><path d="M155.5,215.5L185.5,215.5"></path><path d="M185.5,215.5L215.5,215.5"></path><path d="M215.5,215.5L215.5,245.5"></path><path d="M215.5,215.5L245.5,215.5"></path><path d="M245.5,215.5L275.5,215.5"></path><path d="M275.5,215.5L305.5,215.5"></path><path d="M125.5,245.5L125.5,275.5"></path><path d="M215.5,245.5L215.5,275.5"></path><path d="M125.5,275.5L125.5,305.5"></path><path d="M215.5,275.5L215.5,305.5"></path></g><g stroke="#000" stroke-width="2.5" stroke-linecap="round"><path d="M35.5,35.5L65.5,35.5"></path><path d="M35.5,35.5L35.5,65.5"></path><path d="M65.5,35.5L95.5,35.5"></path><path d="M95.5,35.5L125.5,35.5"></path><path d="M125.5,35.5L155.5,35.5"></path><path d="M155.5,35.5L185.5,35.5"></path><path d="M185.5,35.5L215.5,35.5"></path><path d="M215.5,35.5L245.5,35.5"></path><path d="M245.5,35.5L275.5,35.5"></path><path d="M275.5,35.5L305.5,35.5"></path><path d="M305.5,35.5L305.5,65.5"></path><path d="M35.5,65.5L35.5,95.5"></path><path d="M305.5,65.5L305.5,95.5"></path><path d="M35.5,95.5L35.5,125.5"></path><path d="M305.5,95.5L305.5,125.5"></path><path d="M35.5,125.5L35.5,155.5"></path><path d="M305.5,125.5L305.5,155.5"></path><path d="M35.5,155.5L35.5,185.5"></path><path d="M305.5,155.5L305.5,185.5"></path><path d="M35.5,185.5L35.5,215.5"></path><path d="M305.5,185.5L305.5,215.5"></path><path d="M35.5,215.5L35.5,245.5"></path><path d="M305.5,215.5L305.5,245.5"></path><path d="M35.5,245.5L35.5,275.5"></path><path d="M305.5,245.5L305.5,275.5"></path><path d="M35.5,275.5L35.5,305.5"></path><path d="M35.5,305.5L65.5,305.5"></path><path d="M65.5,305.5L95.5,305.5"></path><path d="M95.5,305.5L125.5,305.5"></path><path d="M125.5,305.5L155.5,305.5"></path><path d="M155.5,305.5L185.5,305.5"></path><path d="M185.5,305.5L215.5,305.5"></path><path d="M215.5,305.5L245.5,305.5"></path><path d="M245.5,305.5L275.5,305.5"></path><path d="M305.5,275.5L305.5,305.5"></path><path d="M275.5,305.5L305.5,305.5"></path></g><g id="grid_id" font-size="216px" style="display: none; "><text x="170.5" y="224.5" class="active">1</text></g><g id="selector" style="display: none; "><g><rect x="0" y="0" width="20" height="20"></rect><text x="10" y="14">1</text></g><g><rect x="20" y="0" width="20" height="20"></rect><text x="30" y="14">2</text></g><g><rect x="40" y="0" width="20" height="20"></rect><text x="50" y="14">3</text></g><g><rect x="0" y="20" width="20" height="20"></rect><text x="10" y="34">4</text></g><g><rect x="20" y="20" width="20" height="20"></rect><text x="30" y="34">5</text></g><g><rect x="40" y="20" width="20" height="20"></rect><text x="50" y="34">6</text></g><g><rect x="0" y="40" width="20" height="20"></rect><text x="10" y="54">7</text></g><g><rect x="20" y="40" width="20" height="20"></rect><text x="30" y="54">8</text></g><g><rect x="40" y="40" width="20" height="20"></rect><text x="50" y="54">9</text></g><path d="M0,0L0,60L60,60L60,0L0,0" fill="none" stroke="#888" stroke-width="1.5"></path></g></svg>