<?xml version="1.0" encoding="UTF-8" standalone="no"?>
<svg version="1.1" baseProfile="full" xmlns="http://www.w3.org/2000/svg" xmlns:xlink="http://www.w3.org/1999/xlink" xmlns:ev="http://www.w3.org/2001/xml-events" width="671" height="671"><style type="text/css">#cells rect { fill: #fff; stroke: #000; stroke-width: 0.2; }#cells g.error-1 rect, #cells g.error-2 rect { fill: #f45252; }#cells text { fill: #666; cursor: default; text-anchor: middle; }#cells text.user { fill: #000; }#cells text.solver { fill: #e00; }#cells text.gnc { fill: #080; }#selector { opacity: 0.7; }#selector:hover { opacity: 0.9; }#selector rect { fill: #fff; stroke: #000; stroke-width: 0.2; stroke-linecap: round; }#selector g:hover rect { fill: #f3f3f3; }#selector text { fill: #000; font-size: 12px; text-anchor: middle; cursor: default; }#selector g.disabled rect { fill: #fff; }#selector g.disabled text { fill: #ccc; }#grid_id { opacity: 0.9; fill: #000; stroke: #fff; stroke-width: 2; text-anchor: middle; cursor: default; }#grid_id text.active { fill: #e00; }#grid_id text:hover { stroke: #66e; }</style><defs><g id="diag1" fill="#ccc"><circle cx="6" cy="6" r="3"></circle><circle cx="15" cy="15" r="3"></circle><circle cx="24" cy="24" r="3"></circle></g><g id="diag2" fill="#ccc"><circle cx="24" cy="6" r="3"></circle><circle cx="15" cy="15" r="3"></circle><circle cx="6" cy="24" r="3"></circle></g></defs><g fill="#888" font-size="9.9px" cursor="default" text-anchor="middle"><text x="50.5" y="28.5">1</text><text x="80.5" y="28.5">2</text><text x="110.5" y="28.5">3</text><text x="140.5" y="28.5">4</text><text x="170.5" y="28.5">5</text><text x="200.5" y="28.5">6</text><text x="230.5" y="28.5">7</text><text x="260.5" y="28.5">8</text><text x="290.5" y="28.5">9</text><text x="320.5" y="28.5">10</text><text x="350.5" y="28.5">11</text><text x="380.5" y="28.5">12</text><text x="410.5" y="28.5">13</text><text x="440.5" y="28.5">14</text><text x="470.5" y="28.5">15</text><text x="500.5" y="28.5">16</text><text x="530.5" y="28.5">17</text><text x="560.5" y="28.5">18</text><text x="590.5" y="28.5">19</text><text x="620.5" y="28.5">20</text><text x="650.5" y="28.5">21</text><text x="25.5" y="55.5">A</text><text x="25.5" y="85.5">B</text><text x="25.5" y="115.5">C</text><text x="25.5" y="145.5">D</text><text x="25.5" y="175.5">E</text><text x="25.5" y="205.5">F</text><text x="25.5" y="235.5">G</text><text x="25.5" y="265.5">H</text><text x="25.5" y="295.5">I</text><text x="25.5" y="325.5">J</text><text x="25.5" y="355.5">K</text><text x="25.5" y="385.5">L</text><text x="25.5" y="415.5">M</text><text x="25.5" y="445.5">N</text><text x="25.5" y="475.5">O</text><text x="25.5" y="505.5">P</text><text x="25.5" y="535.5">Q</text><text x="25.5" y="565.5">R</text><text x="25.5" y="595.5">S</text><text x="25.5" y="625.5">T</text><text x="25.5" y="655.5">U</text></g><g id="cells" font-size="21px"><g><rect x="35.5" y="35.5" width="30" height="30"></rect></g><g><rect x="65.5" y="35.5" width="30" height="30"></rect></g><g><rect x="95.5" y="35.5" width="30" height="30"></rect></g><g><rect x="125.5" y="35.5" width="30" height="30"></rect></g><g><rect x="155.5" y="35.5" width="30" height="30"></rect></g><g><rect x="185.5" y="35.5" width="30" height="30"></rect></g><g><rect x="215.5" y="35.5" width="30" height="30"></rect></g><g><rect x="245.5" y="35.5" width="30" height="30"></rect></g><g><rect x="275.5" y="35.5" width="30" height="30"></rect></g><g><rect x="395.5" y="35.5" width="30" height="30"></rect></g><g><rect x="425.5" y="35.5" width="30" height="30"></rect></g><g><rect x="455.5" y="35.5" width="30" height="30"></rect></g><g><rect x="485.5" y="35.5" width="30" height="30"></rect></g><g><rect x="515.5" y="35.5" width="30" height="30"></rect></g><g><rect x="545.5" y="35.5" width="30" height="30"></rect></g><g><rect x="575.5" y="35.5" width="30" height="30"></rect></g><g><rect x="605.5" y="35.5" width="30" height="30"></rect></g><g><rect x="635.5" y="35.5" width="30" height="30"></rect></g><g><rect x="35.5" y="65.5" width="30" height="30"></rect></g><g><rect x="65.5" y="65.5" width="30" height="30"></rect></g><g><rect x="95.5" y="65.5" width="30" height="30"></rect></g><g><rect x="125.5" y="65.5" width="30" height="30"></rect></g><g><rect x="155.5" y="65.5" width="30" height="30"></rect></g><g><rect x="185.5" y="65.5" width="30" height="30"></rect></g><g><rect x="215.5" y="65.5" width="30" height="30"></rect></g><g><rect x="245.5" y="65.5" width="30" height="30"></rect></g><g><rect x="275.5" y="65.5" width="30" height="30"></rect></g><g><rect x="395.5" y="65.5" width="30" height="30"></rect></g><g><rect x="425.5" y="65.5" width="30" height="30"></rect></g><g><rect x="455.5" y="65.5" width="30" height="30"></rect></g><g><rect x="485.5" y="65.5" width="30" height="30"></rect></g><g><rect x="515.5" y="65.5" width="30" height="30"></rect></g><g><rect x="545.5" y="65.5" width="30" height="30"></rect></g><g><rect x="575.5" y="65.5" width="30" height="30"></rect></g><g><rect x="605.5" y="65.5" width="30" height="30"></rect></g><g><rect x="635.5" y="65.5" width="30" height="30"></rect></g><g><rect x="35.5" y="95.5" width="30" height="30"></rect></g><g><rect x="65.5" y="95.5" width="30" height="30"></rect></g><g><rect x="95.5" y="95.5" width="30" height="30"></rect></g><g><rect x="125.5" y="95.5" width="30" height="30"></rect></g><g><rect x="155.5" y="95.5" width="30" height="30"></rect></g><g><rect x="185.5" y="95.5" width="30" height="30"></rect></g><g><rect x="215.5" y="95.5" width="30" height="30"></rect></g><g><rect x="245.5" y="95.5" width="30" height="30"></rect></g><g><rect x="275.5" y="95.5" width="30" height="30"></rect></g><g><rect x="395.5" y="95.5" width="30" height="30"></rect></g><g><rect x="425.5" y="95.5" width="30" height="30"></rect></g><g><rect x="455.5" y="95.5" width="30" height="30"></rect></g><g><rect x="485.5" y="95.5" width="30" height="30"></rect></g><g><rect x="515.5" y="95.5" width="30" height="30"></rect></g><g><rect x="545.5" y="95.5" width="30" height="30"></rect></g><g><rect x="575.5" y="95.5" width="30" height="30"></rect></g><g><rect x="605.5" y="95.5" width="30" height="30"></rect></g><g><rect x="635.5" y="95.5" width="30" height="30"></rect></g><g><rect x="35.5" y="125.5" width="30" height="30"></rect></g><g><rect x="65.5" y="125.5" width="30" height="30"></rect></g><g><rect x="95.5" y="125.5" width="30" height="30"></rect></g><g><rect x="125.5" y="125.5" width="30" height="30"></rect></g><g><rect x="155.5" y="125.5" width="30" height="30"></rect></g><g><rect x="185.5" y="125.5" width="30" height="30"></rect></g><g><rect x="215.5" y="125.5" width="30" height="30"></rect></g><g><rect x="245.5" y="125.5" width="30" height="30"></rect></g><g><rect x="275.5" y="125.5" width="30" height="30"></rect></g><g><rect x="395.5" y="125.5" width="30" height="30"></rect></g><g><rect x="425.5" y="125.5" width="30" height="30"></rect></g><g><rect x="455.5" y="125.5" width="30" height="30"></rect></g><g><rect x="485.5" y="125.5" width="30" height="30"></rect></g><g><rect x="515.5" y="125.5" width="30" height="30"></rect></g><g><rect x="545.5" y="125.5" width="30" height="30"></rect></g><g><rect x="575.5" y="125.5" width="30" height="30"></rect></g><g><rect x="605.5" y="125.5" width="30" height="30"></rect></g><g><rect x="635.5" y="125.5" width="30" height="30"></rect></g><g><rect x="35.5" y="155.5" width="30" height="30"></rect></g><g><rect x="65.5" y="155.5" width="30" height="30"></rect></g><g><rect x="95.5" y="155.5" width="30" height="30"></rect></g><g><rect x="125.5" y="155.5" width="30" height="30"></rect></g><g><rect x="155.5" y="155.5" width="30" height="30"></rect></g><g><rect x="185.5" y="155.5" width="30" height="30"></rect></g><g><rect x="215.5" y="155.5" width="30" height="30"></rect></g><g><rect x="245.5" y="155.5" width="30" height="30"></rect></g><g><rect x="275.5" y="155.5" width="30" height="30"></rect></g><g><rect x="395.5" y="155.5" width="30" height="30"></rect></g><g><rect x="425.5" y="155.5" width="30" height="30"></rect></g><g><rect x="455.5" y="155.5" width="30" height="30"></rect></g><g><rect x="485.5" y="155.5" width="30" height="30"></rect></g><g><rect x="515.5" y="155.5" width="30" height="30"></rect></g><g><rect x="545.5" y="155.5" width="30" height="30"></rect></g><g><rect x="575.5" y="155.5" width="30" height="30"></rect></g><g><rect x="605.5" y="155.5" width="30" height="30"></rect></g><g><rect x="635.5" y="155.5" width="30" height="30"></rect></g><g><rect x="35.5" y="185.5" width="30" height="30"></rect></g><g><rect x="65.5" y="185.5" width="30" height="30"></rect></g><g><rect x="95.5" y="185.5" width="30" height="30"></rect></g><g><rect x="125.5" y="185.5" width="30" height="30"></rect></g><g><rect x="155.5" y="185.5" width="30" height="30"></rect></g><g><rect x="185.5" y="185.5" width="30" height="30"></rect></g><g><rect x="215.5" y="185.5" width="30" height="30"></rect></g><g><rect x="245.5" y="185.5" width="30" height="30"></rect></g><g><rect x="275.5" y="185.5" width="30" height="30"></rect></g><g><rect x="395.5" y="185.5" width="30" height="30"></rect></g><g><rect x="425.5" y="185.5" width="30" height="30"></rect></g><g><rect x="455.5" y="185.5" width="30" height="30"></rect></g><g><rect x="485.5" y="185.5" width="30" height="30"></rect></g><g><rect x="515.5" y="185.5" width="30" height="30"></rect></g><g><rect x="545.5" y="185.5" width="30" height="30"></rect></g><g><rect x="575.5" y="185.5" width="30" height="30"></rect></g><g><rect x="605.5" y="185.5" width="30" height="30"></rect></g><g><rect x="635.5" y="185.5" width="30" height="30"></rect></g><g><rect x="35.5" y="215.5" width="30" height="30"></rect></g><g><rect x="65.5" y="215.5" width="30" height="30"></rect></g><g><rect x="95.5" y="215.5" width="30" height="30"></rect></g><g><rect x="125.5" y="215.5" width="30" height="30"></rect></g><g><rect x="155.5" y="215.5" width="30" height="30"></rect></g><g><rect x="185.5" y="215.5" width="30" height="30"></rect></g><g><rect x="215.5" y="215.5" width="30" height="30"></rect></g><g><rect x="245.5" y="215.5" width="30" height="30"></rect></g><g><rect x="275.5" y="215.5" width="30" height="30"></rect></g><g><rect x="305.5" y="215.5" width="30" height="30"></rect></g><g><rect x="335.5" y="215.5" width="30" height="30"></rect></g><g><rect x="365.5" y="215.5" width="30" height="30"></rect></g><g><rect x="395.5" y="215.5" width="30" height="30"></rect></g><g><rect x="425.5" y="215.5" width="30" height="30"></rect></g><g><rect x="455.5" y="215.5" width="30" height="30"></rect></g><g><rect x="485.5" y="215.5" width="30" height="30"></rect></g><g><rect x="515.5" y="215.5" width="30" height="30"></rect></g><g><rect x="545.5" y="215.5" width="30" height="30"></rect></g><g><rect x="575.5" y="215.5" width="30" height="30"></rect></g><g><rect x="605.5" y="215.5" width="30" height="30"></rect></g><g><rect x="635.5" y="215.5" width="30" height="30"></rect></g><g><rect x="35.5" y="245.5" width="30" height="30"></rect></g><g><rect x="65.5" y="245.5" width="30" height="30"></rect></g><g><rect x="95.5" y="245.5" width="30" height="30"></rect></g><g><rect x="125.5" y="245.5" width="30" height="30"></rect></g><g><rect x="155.5" y="245.5" width="30" height="30"></rect></g><g><rect x="185.5" y="245.5" width="30" height="30"></rect></g><g><rect x="215.5" y="245.5" width="30" height="30"></rect></g><g><rect x="245.5" y="245.5" width="30" height="30"></rect></g><g><rect x="275.5" y="245.5" width="30" height="30"></rect></g><g><rect x="305.5" y="245.5" width="30" height="30"></rect></g><g><rect x="335.5" y="245.5" width="30" height="30"></rect></g><g><rect x="365.5" y="245.5" width="30" height="30"></rect></g><g><rect x="395.5" y="245.5" width="30" height="30"></rect></g><g><rect x="425.5" y="245.5" width="30" height="30"></rect></g><g><rect x="455.5" y="245.5" width="30" height="30"></rect></g><g><rect x="485.5" y="245.5" width="30" height="30"></rect></g><g><rect x="515.5" y="245.5" width="30" height="30"></rect></g><g><rect x="545.5" y="245.5" width="30" height="30"></rect></g><g><rect x="575.5" y="245.5" width="30" height="30"></rect></g><g><rect x="605.5" y="245.5" width="30" height="30"></rect></g><g><rect x="635.5" y="245.5" width="30" height="30"></rect></g><g><rect x="35.5" y="275.5" width="30" height="30"></rect></g><g><rect x="65.5" y="275.5" width="30" height="30"></rect></g><g><rect x="95.5" y="275.5" width="30" height="30"></rect></g><g><rect x="125.5" y="275.5" width="30" height="30"></rect></g><g><rect x="155.5" y="275.5" width="30" height="30"></rect></g><g><rect x="185.5" y="275.5" width="30" height="30"></rect></g><g><rect x="215.5" y="275.5" width="30" height="30"></rect></g><g><rect x="245.5" y="275.5" width="30" height="30"></rect></g><g><rect x="275.5" y="275.5" width="30" height="30"></rect></g><g><rect x="305.5" y="275.5" width="30" height="30"></rect></g><g><rect x="335.5" y="275.5" width="30" height="30"></rect></g><g><rect x="365.5" y="275.5" width="30" height="30"></rect></g><g><rect x="395.5" y="275.5" width="30" height="30"></rect></g><g><rect x="425.5" y="275.5" width="30" height="30"></rect></g><g><rect x="455.5" y="275.5" width="30" height="30"></rect></g><g><rect x="485.5" y="275.5" width="30" height="30"></rect></g><g><rect x="515.5" y="275.5" width="30" height="30"></rect></g><g><rect x="545.5" y="275.5" width="30" height="30"></rect></g><g><rect x="575.5" y="275.5" width="30" height="30"></rect></g><g><rect x="605.5" y="275.5" width="30" height="30"></rect></g><g><rect x="635.5" y="275.5" width="30" height="30"></rect></g><g><rect x="215.5" y="305.5" width="30" height="30"></rect></g><g><rect x="245.5" y="305.5" width="30" height="30"></rect></g><g><rect x="275.5" y="305.5" width="30" height="30"></rect></g><g><rect x="305.5" y="305.5" width="30" height="30"></rect></g><g><rect x="335.5" y="305.5" width="30" height="30"></rect></g><g><rect x="365.5" y="305.5" width="30" height="30"></rect></g><g><rect x="395.5" y="305.5" width="30" height="30"></rect></g><g><rect x="425.5" y="305.5" width="30" height="30"></rect></g><g><rect x="455.5" y="305.5" width="30" height="30"></rect></g><g><rect x="215.5" y="335.5" width="30" height="30"></rect></g><g><rect x="245.5" y="335.5" width="30" height="30"></rect></g><g><rect x="275.5" y="335.5" width="30" height="30"></rect></g><g><rect x="305.5" y="335.5" width="30" height="30"></rect></g><g><rect x="335.5" y="335.5" width="30" height="30"></rect></g><g><rect x="365.5" y="335.5" width="30" height="30"></rect></g><g><rect x="395.5" y="335.5" width="30" height="30"></rect></g><g><rect x="425.5" y="335.5" width="30" height="30"></rect></g><g><rect x="455.5" y="335.5" width="30" height="30"></rect></g><g><rect x="215.5" y="365.5" width="30" height="30"></rect></g><g><rect x="245.5" y="365.5" width="30" height="30"></rect></g><g><rect x="275.5" y="365.5" width="30" height="30"></rect></g><g><rect x="305.5" y="365.5" width="30" height="30"></rect></g><g><rect x="335.5" y="365.5" width="30" height="30"></rect></g><g><rect x="365.5" y="365.5" width="30" height="30"></rect></g><g><rect x="395.5" y="365.5" width="30" height="30"></rect></g><g><rect x="425.5" y="365.5" width="30" height="30"></rect></g><g><rect x="455.5" y="365.5" width="30" height="30"></rect></g><g><rect x="35.5" y="395.5" width="30" height="30"></rect></g><g><rect x="65.5" y="395.5" width="30" height="30"></rect></g><g><rect x="95.5" y="395.5" width="30" height="30"></rect></g><g><rect x="125.5" y="395.5" width="30" height="30"></rect></g><g><rect x="155.5" y="395.5" width="30" height="30"></rect></g><g><rect x="185.5" y="395.5" width="30" height="30"></rect></g><g><rect x="215.5" y="395.5" width="30" height="30"></rect></g><g><rect x="245.5" y="395.5" width="30" height="30"></rect></g><g><rect x="275.5" y="395.5" width="30" height="30"></rect></g><g><rect x="305.5" y="395.5" width="30" height="30"></rect></g><g><rect x="335.5" y="395.5" width="30" height="30"></rect></g><g><rect x="365.5" y="395.5" width="30" height="30"></rect></g><g><rect x="395.5" y="395.5" width="30" height="30"></rect></g><g><rect x="425.5" y="395.5" width="30" height="30"></rect></g><g><rect x="455.5" y="395.5" width="30" height="30"></rect></g><g><rect x="485.5" y="395.5" width="30" height="30"></rect></g><g><rect x="515.5" y="395.5" width="30" height="30"></rect></g><g><rect x="545.5" y="395.5" width="30" height="30"></rect></g><g><rect x="575.5" y="395.5" width="30" height="30"></rect></g><g><rect x="605.5" y="395.5" width="30" height="30"></rect></g><g><rect x="635.5" y="395.5" width="30" height="30"></rect></g><g><rect x="35.5" y="425.5" width="30" height="30"></rect></g><g><rect x="65.5" y="425.5" width="30" height="30"></rect></g><g><rect x="95.5" y="425.5" width="30" height="30"></rect></g><g><rect x="125.5" y="425.5" width="30" height="30"></rect></g><g><rect x="155.5" y="425.5" width="30" height="30"></rect></g><g><rect x="185.5" y="425.5" width="30" height="30"></rect></g><g><rect x="215.5" y="425.5" width="30" height="30"></rect></g><g><rect x="245.5" y="425.5" width="30" height="30"></rect></g><g><rect x="275.5" y="425.5" width="30" height="30"></rect></g><g><rect x="305.5" y="425.5" width="30" height="30"></rect></g><g><rect x="335.5" y="425.5" width="30" height="30"></rect></g><g><rect x="365.5" y="425.5" width="30" height="30"></rect></g><g><rect x="395.5" y="425.5" width="30" height="30"></rect></g><g><rect x="425.5" y="425.5" width="30" height="30"></rect></g><g><rect x="455.5" y="425.5" width="30" height="30"></rect></g><g><rect x="485.5" y="425.5" width="30" height="30"></rect></g><g><rect x="515.5" y="425.5" width="30" height="30"></rect></g><g><rect x="545.5" y="425.5" width="30" height="30"></rect></g><g><rect x="575.5" y="425.5" width="30" height="30"></rect></g><g><rect x="605.5" y="425.5" width="30" height="30"></rect></g><g><rect x="635.5" y="425.5" width="30" height="30"></rect></g><g><rect x="35.5" y="455.5" width="30" height="30"></rect></g><g><rect x="65.5" y="455.5" width="30" height="30"></rect></g><g><rect x="95.5" y="455.5" width="30" height="30"></rect></g><g><rect x="125.5" y="455.5" width="30" height="30"></rect></g><g><rect x="155.5" y="455.5" width="30" height="30"></rect></g><g><rect x="185.5" y="455.5" width="30" height="30"></rect></g><g><rect x="215.5" y="455.5" width="30" height="30"></rect></g><g><rect x="245.5" y="455.5" width="30" height="30"></rect></g><g><rect x="275.5" y="455.5" width="30" height="30"></rect></g><g><rect x="305.5" y="455.5" width="30" height="30"></rect></g><g><rect x="335.5" y="455.5" width="30" height="30"></rect></g><g><rect x="365.5" y="455.5" width="30" height="30"></rect></g><g><rect x="395.5" y="455.5" width="30" height="30"></rect></g><g><rect x="425.5" y="455.5" width="30" height="30"></rect></g><g><rect x="455.5" y="455.5" width="30" height="30"></rect></g><g><rect x="485.5" y="455.5" width="30" height="30"></rect></g><g><rect x="515.5" y="455.5" width="30" height="30"></rect></g><g><rect x="545.5" y="455.5" width="30" height="30"></rect></g><g><rect x="575.5" y="455.5" width="30" height="30"></rect></g><g><rect x="605.5" y="455.5" width="30" height="30"></rect></g><g><rect x="635.5" y="455.5" width="30" height="30"></rect></g><g><rect x="35.5" y="485.5" width="30" height="30"></rect></g><g><rect x="65.5" y="485.5" width="30" height="30"></rect></g><g><rect x="95.5" y="485.5" width="30" height="30"></rect></g><g><rect x="125.5" y="485.5" width="30" height="30"></rect></g><g><rect x="155.5" y="485.5" width="30" height="30"></rect></g><g><rect x="185.5" y="485.5" width="30" height="30"></rect></g><g><rect x="215.5" y="485.5" width="30" height="30"></rect></g><g><rect x="245.5" y="485.5" width="30" height="30"></rect></g><g><rect x="275.5" y="485.5" width="30" height="30"></rect></g><g><rect x="395.5" y="485.5" width="30" height="30"></rect></g><g><rect x="425.5" y="485.5" width="30" height="30"></rect></g><g><rect x="455.5" y="485.5" width="30" height="30"></rect></g><g><rect x="485.5" y="485.5" width="30" height="30"></rect></g><g><rect x="515.5" y="485.5" width="30" height="30"></rect></g><g><rect x="545.5" y="485.5" width="30" height="30"></rect></g><g><rect x="575.5" y="485.5" width="30" height="30"></rect></g><g><rect x="605.5" y="485.5" width="30" height="30"></rect></g><g><rect x="635.5" y="485.5" width="30" height="30"></rect></g><g><rect x="35.5" y="515.5" width="30" height="30"></rect></g><g><rect x="65.5" y="515.5" width="30" height="30"></rect></g><g><rect x="95.5" y="515.5" width="30" height="30"></rect></g><g><rect x="125.5" y="515.5" width="30" height="30"></rect></g><g><rect x="155.5" y="515.5" width="30" height="30"></rect></g><g><rect x="185.5" y="515.5" width="30" height="30"></rect></g><g><rect x="215.5" y="515.5" width="30" height="30"></rect></g><g><rect x="245.5" y="515.5" width="30" height="30"></rect></g><g><rect x="275.5" y="515.5" width="30" height="30"></rect></g><g><rect x="395.5" y="515.5" width="30" height="30"></rect></g><g><rect x="425.5" y="515.5" width="30" height="30"></rect></g><g><rect x="455.5" y="515.5" width="30" height="30"></rect></g><g><rect x="485.5" y="515.5" width="30" height="30"></rect></g><g><rect x="515.5" y="515.5" width="30" height="30"></rect></g><g><rect x="545.5" y="515.5" width="30" height="30"></rect></g><g><rect x="575.5" y="515.5" width="30" height="30"></rect></g><g><rect x="605.5" y="515.5" width="30" height="30"></rect></g><g><rect x="635.5" y="515.5" width="30" height="30"></rect></g><g><rect x="35.5" y="545.5" width="30" height="30"></rect></g><g><rect x="65.5" y="545.5" width="30" height="30"></rect></g><g><rect x="95.5" y="545.5" width="30" height="30"></rect></g><g><rect x="125.5" y="545.5" width="30" height="30"></rect></g><g><rect x="155.5" y="545.5" width="30" height="30"></rect></g><g><rect x="185.5" y="545.5" width="30" height="30"></rect></g><g><rect x="215.5" y="545.5" width="30" height="30"></rect></g><g><rect x="245.5" y="545.5" width="30" height="30"></rect></g><g><rect x="275.5" y="545.5" width="30" height="30"></rect></g><g><rect x="395.5" y="545.5" width="30" height="30"></rect></g><g><rect x="425.5" y="545.5" width="30" height="30"></rect></g><g><rect x="455.5" y="545.5" width="30" height="30"></rect></g><g><rect x="485.5" y="545.5" width="30" height="30"></rect></g><g><rect x="515.5" y="545.5" width="30" height="30"></rect></g><g><rect x="545.5" y="545.5" width="30" height="30"></rect></g><g><rect x="575.5" y="545.5" width="30" height="30"></rect></g><g><rect x="605.5" y="545.5" width="30" height="30"></rect></g><g><rect x="635.5" y="545.5" width="30" height="30"></rect></g><g><rect x="35.5" y="575.5" width="30" height="30"></rect></g><g><rect x="65.5" y="575.5" width="30" height="30"></rect></g><g><rect x="95.5" y="575.5" width="30" height="30"></rect></g><g><rect x="125.5" y="575.5" width="30" height="30"></rect></g><g><rect x="155.5" y="575.5" width="30" height="30"></rect></g><g><rect x="185.5" y="575.5" width="30" height="30"></rect></g><g><rect x="215.5" y="575.5" width="30" height="30"></rect></g><g><rect x="245.5" y="575.5" width="30" height="30"></rect></g><g><rect x="275.5" y="575.5" width="30" height="30"></rect></g><g><rect x="395.5" y="575.5" width="30" height="30"></rect></g><g><rect x="425.5" y="575.5" width="30" height="30"></rect></g><g><rect x="455.5" y="575.5" width="30" height="30"></rect></g><g><rect x="485.5" y="575.5" width="30" height="30"></rect></g><g><rect x="515.5" y="575.5" width="30" height="30"></rect></g><g><rect x="545.5" y="575.5" width="30" height="30"></rect></g><g><rect x="575.5" y="575.5" width="30" height="30"></rect></g><g><rect x="605.5" y="575.5" width="30" height="30"></rect></g><g><rect x="635.5" y="575.5" width="30" height="30"></rect></g><g><rect x="35.5" y="605.5" width="30" height="30"></rect></g><g><rect x="65.5" y="605.5" width="30" height="30"></rect></g><g><rect x="95.5" y="605.5" width="30" height="30"></rect></g><g><rect x="125.5" y="605.5" width="30" height="30"></rect></g><g><rect x="155.5" y="605.5" width="30" height="30"></rect></g><g><rect x="185.5" y="605.5" width="30" height="30"></rect></g><g><rect x="215.5" y="605.5" width="30" height="30"></rect></g><g><rect x="245.5" y="605.5" width="30" height="30"></rect></g><g><rect x="275.5" y="605.5" width="30" height="30"></rect></g><g><rect x="395.5" y="605.5" width="30" height="30"></rect></g><g><rect x="425.5" y="605.5" width="30" height="30"></rect></g><g><rect x="455.5" y="605.5" width="30" height="30"></rect></g><g><rect x="485.5" y="605.5" width="30" height="30"></rect></g><g><rect x="515.5" y="605.5" width="30" height="30"></rect></g><g><rect x="545.5" y="605.5" width="30" height="30"></rect></g><g><rect x="575.5" y="605.5" width="30" height="30"></rect></g><g><rect x="605.5" y="605.5" width="30" height="30"></rect></g><g><rect x="635.5" y="605.5" width="30" height="30"></rect></g><g><rect x="35.5" y="635.5" width="30" height="30"></rect></g><g><rect x="65.5" y="635.5" width="30" height="30"></rect></g><g><rect x="95.5" y="635.5" width="30" height="30"></rect></g><g><rect x="125.5" y="635.5" width="30" height="30"></rect></g><g><rect x="155.5" y="635.5" width="30" height="30"></rect></g><g><rect x="185.5" y="635.5" width="30" height="30"></rect></g><g><rect x="215.5" y="635.5" width="30" height="30"></rect></g><g><rect x="245.5" y="635.5" width="30" height="30"></rect></g><g><rect x="275.5" y="635.5" width="30" height="30"></rect></g><g><rect x="395.5" y="635.5" width="30" height="30"></rect></g><g><rect x="425.5" y="635.5" width="30" height="30"></rect></g><g><rect x="455.5" y="635.5" width="30" height="30"></rect></g><g><rect x="485.5" y="635.5" width="30" height="30"></rect></g><g><rect x="515.5" y="635.5" width="30" height="30"></rect></g><g><rect x="545.5" y="635.5" width="30" height="30"></rect></g><g><rect x="575.5" y="635.5" width="30" height="30"></rect></g><g><rect x="605.5" y="635.5" width="30" height="30"></rect></g><g><rect x="635.5" y="635.5" width="30" height="30"></rect></g></g><g stroke="#888" stroke-width="2.5" stroke-linecap="round"><path d="M125.5,35.5L125.5,65.5"></path><path d="M215.5,35.5L215.5,65.5"></path><path d="M485.5,35.5L485.5,65.5"></path><path d="M575.5,35.5L575.5,65.5"></path><path d="M125.5,65.5L125.5,95.5"></path><path d="M215.5,65.5L215.5,95.5"></path><path d="M485.5,65.5L485.5,95.5"></path><path d="M575.5,65.5L575.5,95.5"></path><path d="M125.5,95.5L125.5,125.5"></path><path d="M215.5,95.5L215.5,125.5"></path><path d="M485.5,95.5L485.5,125.5"></path><path d="M575.5,95.5L575.5,125.5"></path><path d="M35.5,125.5L65.5,125.5"></path><path d="M65.5,125.5L95.5,125.5"></path><path d="M95.5,125.5L125.5,125.5"></path><path d="M125.5,125.5L125.5,155.5"></path><path d="M125.5,125.5L155.5,125.5"></path><path d="M155.5,125.5L185.5,125.5"></path><path d="M185.5,125.5L215.5,125.5"></path><path d="M215.5,125.5L215.5,155.5"></path><path d="M215.5,125.5L245.5,125.5"></path><path d="M245.5,125.5L275.5,125.5"></path><path d="M275.5,125.5L305.5,125.5"></path><path d="M395.5,125.5L425.5,125.5"></path><path d="M425.5,125.5L455.5,125.5"></path><path d="M455.5,125.5L485.5,125.5"></path><path d="M485.5,125.5L485.5,155.5"></path><path d="M485.5,125.5L515.5,125.5"></path><path d="M515.5,125.5L545.5,125.5"></path><path d="M545.5,125.5L575.5,125.5"></path><path d="M575.5,125.5L575.5,155.5"></path><path d="M575.5,125.5L605.5,125.5"></path><path d="M605.5,125.5L635.5,125.5"></path><path d="M635.5,125.5L665.5,125.5"></path><path d="M125.5,155.5L125.5,185.5"></path><path d="M215.5,155.5L215.5,185.5"></path><path d="M485.5,155.5L485.5,185.5"></path><path d="M575.5,155.5L575.5,185.5"></path><path d="M125.5,185.5L125.5,215.5"></path><path d="M215.5,185.5L215.5,215.5"></path><path d="M485.5,185.5L485.5,215.5"></path><path d="M575.5,185.5L575.5,215.5"></path><path d="M35.5,215.5L65.5,215.5"></path><path d="M65.5,215.5L95.5,215.5"></path><path d="M95.5,215.5L125.5,215.5"></path><path d="M125.5,215.5L125.5,245.5"></path><path d="M125.5,215.5L155.5,215.5"></path><path d="M155.5,215.5L185.5,215.5"></path><path d="M185.5,215.5L215.5,215.5"></path><path d="M215.5,215.5L215.5,245.5"></path><path d="M215.5,215.5L245.5,215.5"></path><path d="M245.5,215.5L275.5,215.5"></path><path d="M275.5,215.5L305.5,215.5"></path><path d="M305.5,215.5L305.5,245.5"></path><path d="M395.5,215.5L395.5,245.5"></path><path d="M395.5,215.5L425.5,215.5"></path><path d="M425.5,215.5L455.5,215.5"></path><path d="M455.5,215.5L485.5,215.5"></path><path d="M485.5,215.5L485.5,245.5"></path><path d="M485.5,215.5L515.5,215.5"></path><path d="M515.5,215.5L545.5,215.5"></path><path d="M545.5,215.5L575.5,215.5"></path><path d="M575.5,215.5L575.5,245.5"></path><path d="M575.5,215.5L605.5,215.5"></path><path d="M605.5,215.5L635.5,215.5"></path><path d="M635.5,215.5L665.5,215.5"></path><path d="M125.5,245.5L125.5,275.5"></path><path d="M215.5,245.5L215.5,275.5"></path><path d="M305.5,245.5L305.5,275.5"></path><path d="M395.5,245.5L395.5,275.5"></path><path d="M485.5,245.5L485.5,275.5"></path><path d="M575.5,245.5L575.5,275.5"></path><path d="M125.5,275.5L125.5,305.5"></path><path d="M215.5,275.5L215.5,305.5"></path><path d="M305.5,275.5L305.5,305.5"></path><path d="M395.5,275.5L395.5,305.5"></path><path d="M485.5,275.5L485.5,305.5"></path><path d="M575.5,275.5L575.5,305.5"></path><path d="M215.5,305.5L245.5,305.5"></path><path d="M245.5,305.5L275.5,305.5"></path><path d="M275.5,305.5L305.5,305.5"></path><path d="M305.5,305.5L305.5,335.5"></path><path d="M305.5,305.5L335.5,305.5"></path><path d="M335.5,305.5L365.5,305.5"></path><path d="M365.5,305.5L395.5,305.5"></path><path d="M395.5,305.5L395.5,335.5"></path><path d="M395.5,305.5L425.5,305.5"></path><path d="M425.5,305.5L455.5,305.5"></path><path d="M455.5,305.5L485.5,305.5"></path><path d="M305.5,335.5L305.5,365.5"></path><path d="M395.5,335.5L395.5,365.5"></path><path d="M305.5,365.5L305.5,395.5"></path><path d="M395.5,365.5L395.5,395.5"></path><path d="M125.5,395.5L125.5,425.5"></path><path d="M215.5,395.5L215.5,425.5"></path><path d="M215.5,395.5L245.5,395.5"></path><path d="M245.5,395.5L275.5,395.5"></path><path d="M275.5,395.5L305.5,395.5"></path><path d="M305.5,395.5L305.5,425.5"></path><path d="M305.5,395.5L335.5,395.5"></path><path d="M335.5,395.5L365.5,395.5"></path><path d="M365.5,395.5L395.5,395.5"></path><path d="M395.5,395.5L395.5,425.5"></path><path d="M395.5,395.5L425.5,395.5"></path><path d="M425.5,395.5L455.5,395.5"></path><path d="M455.5,395.5L485.5,395.5"></path><path d="M485.5,395.5L485.5,425.5"></path><path d="M575.5,395.5L575.5,425.5"></path><path d="M125.5,425.5L125.5,455.5"></path><path d="M215.5,425.5L215.5,455.5"></path><path d="M305.5,425.5L305.5,455.5"></path><path d="M395.5,425.5L395.5,455.5"></path><path d="M485.5,425.5L485.5,455.5"></path><path d="M575.5,425.5L575.5,455.5"></path><path d="M125.5,455.5L125.5,485.5"></path><path d="M215.5,455.5L215.5,485.5"></path><path d="M305.5,455.5L305.5,485.5"></path><path d="M395.5,455.5L395.5,485.5"></path><path d="M485.5,455.5L485.5,485.5"></path><path d="M575.5,455.5L575.5,485.5"></path><path d="M35.5,485.5L65.5,485.5"></path><path d="M65.5,485.5L95.5,485.5"></path><path d="M95.5,485.5L125.5,485.5"></path><path d="M125.5,485.5L125.5,515.5"></path><path d="M125.5,485.5L155.5,485.5"></path><path d="M155.5,485.5L185.5,485.5"></path><path d="M185.5,485.5L215.5,485.5"></path><path d="M215.5,485.5L215.5,515.5"></path><path d="M215.5,485.5L245.5,485.5"></path><path d="M245.5,485.5L275.5,485.5"></path><path d="M275.5,485.5L305.5,485.5"></path><path d="M395.5,485.5L425.5,485.5"></path><path d="M425.5,485.5L455.5,485.5"></path><path d="M455.5,485.5L485.5,485.5"></path><path d="M485.5,485.5L485.5,515.5"></path><path d="M485.5,485.5L515.5,485.5"></path><path d="M515.5,485.5L545.5,485.5"></path><path d="M545.5,485.5L575.5,485.5"></path><path d="M575.5,485.5L575.5,515.5"></path><path d="M575.5,485.5L605.5,485.5"></path><path d="M605.5,485.5L635.5,485.5"></path><path d="M635.5,485.5L665.5,485.5"></path><path d="M125.5,515.5L125.5,545.5"></path><path d="M215.5,515.5L215.5,545.5"></path><path d="M485.5,515.5L485.5,545.5"></path><path d="M575.5,515.5L575.5,545.5"></path><path d="M125.5,545.5L125.5,575.5"></path><path d="M215.5,545.5L215.5,575.5"></path><path d="M485.5,545.5L485.5,575.5"></path><path d="M575.5,545.5L575.5,575.5"></path><path d="M35.5,575.5L65.5,575.5"></path><path d="M65.5,575.5L95.5,575.5"></path><path d="M95.5,575.5L125.5,575.5"></path><path d="M125.5,575.5L125.5,605.5"></path><path d="M125.5,575.5L155.5,575.5"></path><path d="M155.5,575.5L185.5,575.5"></path><path d="M185.5,575.5L215.5,575.5"></path><path d="M215.5,575.5L215.5,605.5"></path><path d="M215.5,575.5L245.5,575.5"></path><path d="M245.5,575.5L275.5,575.5"></path><path d="M275.5,575.5L305.5,575.5"></path><path d="M395.5,575.5L425.5,575.5"></path><path d="M425.5,575.5L455.5,575.5"></path><path d="M455.5,575.5L485.5,575.5"></path><path d="M485.5,575.5L485.5,605.5"></path><path d="M485.5,575.5L515.5,575.5"></path><path d="M515.5,575.5L545.5,575.5"></path><path d="M545.5,575.5L575.5,575.5"></path><path d="M575.5,575.5L575.5,605.5"></path><path d="M575.5,575.5L605.5,575.5"></path><path d="M605.5,575.5L635.5,575.5"></path><path d="M635.5,575.5L665.5,575.5"></path><path d="M125.5,605.5L125.5,635.5"></path><path d="M215.5,605.5L215.5,635.5"></path><path d="M485.5,605.5L485.5,635.5"></path><path d="M575.5,605.5L575.5,635.5"></path><path d="M125.5,635.5L125.5,665.5"></path><path d="M215.5,635.5L215.5,665.5"></path><path d="M485.5,635.5L485.5,665.5"></path><path d="M575.5,635.5L575.5,665.5"></path></g><g stroke="#000" stroke-width="2.5" stroke-linecap="round"><path d="M35.5,35.5L65.5,35.5"></path><path d="M35.5,35.5L35.5,65.5"></path><path d="M65.5,35.5L95.5,35.5"></path><path d="M95.5,35.5L125.5,35.5"></path><path d="M125.5,35.5L155.5,35.5"></path><path d="M155.5,35.5L185.5,35.5"></path><path d="M185.5,35.5L215.5,35.5"></path><path d="M215.5,35.5L245.5,35.5"></path><path d="M245.5,35.5L275.5,35.5"></path><path d="M275.5,35.5L305.5,35.5"></path><path d="M305.5,35.5L305.5,65.5"></path><path d="M395.5,35.5L425.5,35.5"></path><path d="M395.5,35.5L395.5,65.5"></path><path d="M425.5,35.5L455.5,35.5"></path><path d="M455.5,35.5L485.5,35.5"></path><path d="M485.5,35.5L515.5,35.5"></path><path d="M515.5,35.5L545.5,35.5"></path><path d="M545.5,35.5L575.5,35.5"></path><path d="M575.5,35.5L605.5,35.5"></path><path d="M605.5,35.5L635.5,35.5"></path><path d="M635.5,35.5L665.5,35.5"></path><path d="M665.5,35.5L665.5,65.5"></path><path d="M35.5,65.5L35.5,95.5"></path><path d="M305.5,65.5L305.5,95.5"></path><path d="M395.5,65.5L395.5,95.5"></path><path d="M665.5,65.5L665.5,95.5"></path><path d="M35.5,95.5L35.5,125.5"></path><path d="M305.5,95.5L305.5,125.5"></path><path d="M395.5,95.5L395.5,125.5"></path><path d="M665.5,95.5L665.5,125.5"></path><path d="M35.5,125.5L35.5,155.5"></path><path d="M305.5,125.5L305.5,155.5"></path><path d="M395.5,125.5L395.5,155.5"></path><path d="M665.5,125.5L665.5,155.5"></path><path d="M35.5,155.5L35.5,185.5"></path><path d="M305.5,155.5L305.5,185.5"></path><path d="M395.5,155.5L395.5,185.5"></path><path d="M665.5,155.5L665.5,185.5"></path><path d="M35.5,185.5L35.5,215.5"></path><path d="M305.5,185.5L305.5,215.5"></path><path d="M395.5,185.5L395.5,215.5"></path><path d="M665.5,185.5L665.5,215.5"></path><path d="M35.5,215.5L35.5,245.5"></path><path d="M305.5,215.5L335.5,215.5"></path><path d="M335.5,215.5L365.5,215.5"></path><path d="M365.5,215.5L395.5,215.5"></path><path d="M665.5,215.5L665.5,245.5"></path><path d="M35.5,245.5L35.5,275.5"></path><path d="M665.5,245.5L665.5,275.5"></path><path d="M35.5,275.5L35.5,305.5"></path><path d="M35.5,305.5L65.5,305.5"></path><path d="M65.5,305.5L95.5,305.5"></path><path d="M95.5,305.5L125.5,305.5"></path><path d="M125.5,305.5L155.5,305.5"></path><path d="M155.5,305.5L185.5,305.5"></path><path d="M185.5,305.5L215.5,305.5"></path><path d="M485.5,305.5L515.5,305.5"></path><path d="M515.5,305.5L545.5,305.5"></path><path d="M545.5,305.5L575.5,305.5"></path><path d="M575.5,305.5L605.5,305.5"></path><path d="M605.5,305.5L635.5,305.5"></path><path d="M665.5,275.5L665.5,305.5"></path><path d="M635.5,305.5L665.5,305.5"></path><path d="M215.5,305.5L215.5,335.5"></path><path d="M485.5,305.5L485.5,335.5"></path><path d="M215.5,335.5L215.5,365.5"></path><path d="M485.5,335.5L485.5,365.5"></path><path d="M215.5,365.5L215.5,395.5"></path><path d="M485.5,365.5L485.5,395.5"></path><path d="M35.5,395.5L65.5,395.5"></path><path d="M35.5,395.5L35.5,425.5"></path><path d="M65.5,395.5L95.5,395.5"></path><path d="M95.5,395.5L125.5,395.5"></path><path d="M125.5,395.5L155.5,395.5"></path><path d="M155.5,395.5L185.5,395.5"></path><path d="M185.5,395.5L215.5,395.5"></path><path d="M485.5,395.5L515.5,395.5"></path><path d="M515.5,395.5L545.5,395.5"></path><path d="M545.5,395.5L575.5,395.5"></path><path d="M575.5,395.5L605.5,395.5"></path><path d="M605.5,395.5L635.5,395.5"></path><path d="M635.5,395.5L665.5,395.5"></path><path d="M665.5,395.5L665.5,425.5"></path><path d="M35.5,425.5L35.5,455.5"></path><path d="M665.5,425.5L665.5,455.5"></path><path d="M35.5,455.5L35.5,485.5"></path><path d="M305.5,485.5L335.5,485.5"></path><path d="M335.5,485.5L365.5,485.5"></path><path d="M365.5,485.5L395.5,485.5"></path><path d="M665.5,455.5L665.5,485.5"></path><path d="M35.5,485.5L35.5,515.5"></path><path d="M305.5,485.5L305.5,515.5"></path><path d="M395.5,485.5L395.5,515.5"></path><path d="M665.5,485.5L665.5,515.5"></path><path d="M35.5,515.5L35.5,545.5"></path><path d="M305.5,515.5L305.5,545.5"></path><path d="M395.5,515.5L395.5,545.5"></path><path d="M665.5,515.5L665.5,545.5"></path><path d="M35.5,545.5L35.5,575.5"></path><path d="M305.5,545.5L305.5,575.5"></path><path d="M395.5,545.5L395.5,575.5"></path><path d="M665.5,545.5L665.5,575.5"></path><path d="M35.5,575.5L35.5,605.5"></path><path d="M305.5,575.5L305.5,605.5"></path><path d="M395.5,575.5L395.5,605.5"></path><path d="M665.5,575.5L665.5,605.5"></path><path d="M35.5,605.5L35.5,635.5"></path><path d="M305.5,605.5L305.5,635.5"></path><path d="M395.5,605.5L395.5,635.5"></path><path d="M665.5,605.5L665.5,635.5"></path><path d="M35.5,635.5L35.5,665.5"></path><path d="M35.5,665.5L65.5,665.5"></path><path d="M65.5,665.5L95.5,665.5"></path><path d="M95.5,665.5L125.5,665.5"></path><path d="M125.5,665.5L155.5,665.5"></path><path d="M155.5,665.5L185.5,665.5"></path><path d="M185.5,665.5L215.5,665.5"></path><path d="M215.5,665.5L245.5,665.5"></path><path d="M245.5,665.5L275.5,665.5"></path><path d="M305.5,635.5L305.5,665.5"></path><path d="M275.5,665.5L305.5,665.5"></path><path d="M395.5,635.5L395.5,665.5"></path><path d="M395.5,665.5L425.5,665.5"></path><path d="M425.5,665.5L455.5,665.5"></path><path d="M455.5,665.5L485.5,665.5"></path><path d="M485.5,665.5L515.5,665.5"></path><path d="M515.5,665.5L545.5,665.5"></path><path d="M545.5,665.5L575.5,665.5"></path><path d="M575.5,665.5L605.5,665.5"></path><path d="M605.5,665.5L635.5,665.5"></path><path d="M665.5,635.5L665.5,665.5"></path><path d="M635.5,665.5L665.5,665.5"></path></g><g id="grid_id" font-size="216px" style="display: none; "><text x="170.5" y="224.5" class="active">1</text><text x="350.5" y="404.5">2</text><text x="170.5" y="584.5">3</text><text x="530.5" y="224.5">4</text><text x="530.5" y="584.5">5</text></g><g id="selector" style="display: none; "><g><rect x="0" y="0" width="20" height="20"></rect><text x="10" y="14">1</text></g><g><rect x="20" y="0" width="20" height="20"></rect><text x="30" y="14">2</text></g><g><rect x="40" y="0" width="20" height="20"></rect><text x="50" y="14">3</text></g><g><rect x="0" y="20" width="20" height="20"></rect><text x="10" y="34">4</text></g><g><rect x="20" y="20" width="20" height="20"></rect><text x="30" y="34">5</text></g><g><rect x="40" y="20" width="20" height="20"></rect><text x="50" y="34">6</text></g><g><rect x="0" y="40" width="20" height="20"></rect><text x="10" y="54">7</text></g><g><rect x="20" y="40" width="20" height="20"></rect><text x="30" y="54">8</text></g><g><rect x="40" y="40" width="20" height="20"></rect><text x="50" y="54">9</text></g><path d="M0,0L0,60L60,60L60,0L0,0" fill="none" stroke="#888" stroke-width="1.5"></path></g></svg>